inDegrees=no
num_controls=7
num_derivatives=13
num_iterations=134
num_multipliers=7
num_parameters=0
num_slacks=7
num_states=26
objective=5.407189
objective_accelerations=0.795010
objective_balance=0.024014
objective_effort=0.247129
objective_height=4.264402
objective_ligament=0.076635
solver_duration=1584.410252
status=Solve_Succeeded
success=true
DataType=double
version=3
OpenSimVersion=4.4-2022-07-23-0e9fedc
endheader
time	/jointset/ground_pelvis/pelvis_tilt/value	/jointset/ground_pelvis/pelvis_tx/value	/jointset/ground_pelvis/pelvis_ty/value	/jointset/hip_l/hip_flexion_l/value	/jointset/hip_l/hip_adduction_l/value	/jointset/hip_l/hip_rotation_l/value	/jointset/back/lumbar_extension/value	/jointset/patellofemoral_l/patellar_flexion_l/value	/jointset/knee_l/knee_flexion_l/value	/jointset/knee_l/knee_adduction_l/value	/jointset/knee_l/knee_rotation_l/value	/jointset/ankle_l/ankle_angle_l/value	/jointset/subtalar_l/subtalar_angle_l/value	/jointset/ground_pelvis/pelvis_tilt/speed	/jointset/ground_pelvis/pelvis_tx/speed	/jointset/ground_pelvis/pelvis_ty/speed	/jointset/hip_l/hip_flexion_l/speed	/jointset/hip_l/hip_adduction_l/speed	/jointset/hip_l/hip_rotation_l/speed	/jointset/back/lumbar_extension/speed	/jointset/patellofemoral_l/patellar_flexion_l/speed	/jointset/knee_l/knee_flexion_l/speed	/jointset/knee_l/knee_adduction_l/speed	/jointset/knee_l/knee_rotation_l/speed	/jointset/ankle_l/ankle_angle_l/speed	/jointset/subtalar_l/subtalar_angle_l/speed	/forceset/tau_hip_flexion_l	/forceset/tau_hip_adduction_l	/forceset/tau_hip_rotation_l	/forceset/tau_knee_flexion_l	/forceset/tau_ankle_angle_l	/forceset/tau_subtalar_angle_l	/forceset/tau_lumbar_extension	lambda_cid13_p0	lambda_cid13_p1	lambda_cid13_p2	lambda_cid13_p3	lambda_cid13_p4	lambda_cid13_p5	lambda_cid14_p0	/jointset/ground_pelvis/pelvis_tilt/accel	/jointset/ground_pelvis/pelvis_tx/accel	/jointset/ground_pelvis/pelvis_ty/accel	/jointset/hip_l/hip_flexion_l/accel	/jointset/hip_l/hip_adduction_l/accel	/jointset/hip_l/hip_rotation_l/accel	/jointset/back/lumbar_extension/accel	/jointset/patellofemoral_l/patellar_flexion_l/accel	/jointset/knee_l/knee_flexion_l/accel	/jointset/knee_l/knee_adduction_l/accel	/jointset/knee_l/knee_rotation_l/accel	/jointset/ankle_l/ankle_angle_l/accel	/jointset/subtalar_l/subtalar_angle_l/accel	gamma_cid13_p0	gamma_cid13_p1	gamma_cid13_p2	gamma_cid13_p3	gamma_cid13_p4	gamma_cid13_p5	gamma_cid14_p0
1.5	-0.5858859827282756	-0.05601845830877716	0.7728687410728415	1.299010317013225	-0.353968814729388	-0.08849856384798396	-0.353573680047064	0.6337112230813482	0.6337112230812765	-0.06576961441392892	-0.1740166764438386	0.01866199947451214	0.0731576851844168	1.125551327648572	0.5210681008699751	0.5480933871600799	-3.045893999217147	-0.02953927291622986	-0.5548063292190167	0.5873730446711339	-1.712997796160037	-1.712997796160356	-0.2574184428628837	0.01436745168325207	0.07856658658320238	-0.0007148693014030886	-0.2148277318021651	0.006313446815458736	0.009556370117573949	-0.07476423873723773	0.0429779046341773	0.01645877088616633	0.1736986702327585	-9.618398770109879	-7.14740474134389	2.781412078710437	-9.361546776221235	-429.427061785328	-65.97739861550755	-17.80890530320622	0.9921917796879148	1.008551782812966	-0.6794001214417876	-2.018851624989164	0.3388132773732487	-0.2618768380515944	2.095898137013803	-0.7436334653211315	-0.7436334653211314	-0.2974747134621441	0.3107672350476653	0.2270572079336723	0.4158965979566278	8.1675404563929e-08	1.727817601843364e-06	-2.699361744730631e-07	3.281274980596126e-07	4.40914454491457e-07	-3.044250930469477e-07	3.601469806750962e-07
1.51	-0.5745814151961244	-0.05075783911524288	0.7783146004027458	1.268452505013392	-0.3542492799378598	-0.09406012211650207	-0.3475974790383559	0.6165458313310223	0.6165458313308951	-0.06836195414553663	-0.1738597866906758	0.0194586310169842	0.07316916031303362	1.13516691871192	0.5309884858981359	0.5409561844305339	-3.065242950179886	-0.02653523889507434	-0.5574489628136502	0.6077816324119574	-1.71985379003114	-1.71985379003144	-0.2609985755198738	0.01703550855649315	0.08077847409881524	0.003034441564073129	-0.207336452764033	0.005966642691853589	0.01010203161331916	-0.07321129899247243	0.03996075900851146	0.01503438566620236	0.1681716776693943	-10.43165761093748	-6.595673680936279	2.932493203964801	-8.681515357813977	-424.9463833023148	-65.32315764241336	-18.45468094999082	0.9170095214017684	0.9737427854801903	-0.7490823313259833	-1.829030366181708	0.2838455264593299	-0.2566026765007342	2.00051039382666	-0.6226647012948111	-0.6226647012920651	-0.3803855389881976	0.2482548615470779	0.2211168109462862	0.3580285517761228	1.54765427790335e-07	1.651581496559109e-06	-9.470263258921228e-07	2.723180605265649e-07	6.19091467644325e-07	-3.163523124141339e-07	4.42333050314588e-07
1.52	-0.5631865384029888	-0.04540002388689467	0.7836854473088309	1.237713980797076	-0.3544991753937248	-0.0996463359322336	-0.3414197578919979	0.5993186631713353	0.5993186631711409	-0.07098851580316626	-0.1736755303791537	0.02027795389212683	0.07321884459449189	1.143613179845007	0.5405073078327648	0.5330909023963493	-3.082036442513259	-0.02342532239501379	-0.55973743866154	0.6276770722011876	-1.725353078033842	-1.725353078034124	-0.2642628280636894	0.01984076335312795	0.08310485311727857	0.006926961266871416	-0.1998451737259428	0.005619838568246984	0.01064769310898813	-0.07165835924770078	0.03694361338285338	0.01361000044624019	0.1626446851059858	-11.24691293781033	-6.045033072219621	3.085393891474004	-8.000795740548263	-420.4973430640398	-64.74797475244721	-19.08408355392217	0.7583257936356189	0.928239164106582	-0.8250159823695308	-1.507759899116069	0.3599897731542523	-0.1910452887028119	1.993268546695122	-0.4722922916409729	-0.4722922916409669	-0.2342986908272648	0.3382068197264739	0.2499555085037327	0.4445383654210353	1.877152759696851e-07	1.647911131750664e-06	-1.287375920208369e-06	2.51236747375036e-07	7.217324790513622e-07	-2.949838537899147e-07	4.856901233728909e-07
1.53	-0.5517128984337877	-0.03994921963688724	0.7889740576445559	1.206820289716927	-0.3547175616460298	-0.1052537181915004	-0.3350459844312202	0.5820433092662741	0.582043309266194	-0.07364632524526478	-0.1734626499224122	0.02112093430997174	0.07330799612075284	1.150921980074617	0.5495652572816904	0.5245136837826769	-3.09625557355596	-0.02024715958755781	-0.561661449152272	0.6469675896376328	-1.729483261224507	-1.729483261224749	-0.2672730227497022	0.02276395881412269	0.08549162338273669	0.01090835233878865	-0.1926032067542462	0.005037949609219016	0.01119204207926101	-0.0696717069763155	0.03311540256240172	0.01224917799212899	0.1572011965930087	-12.33149822171111	-5.496562754033556	3.263452210975273	-7.01029899427668	-416.1550329255358	-64.18219359229263	-19.69371368563766	0.6882856977973105	0.881385206529669	-0.8915457257967624	-1.311992435056406	0.2972830198130482	-0.1810425216868509	1.880438794606073	-0.3483128530515588	-0.3483128530458223	-0.3301953206077838	0.2733525779021225	0.2331473023079776	0.3755618296132047	1.780161881615388e-07	1.721341866197766e-06	-1.26993867260288e-06	2.670540663788705e-07	7.441164886034548e-07	-2.382387372998277e-07	4.877913875636812e-07
1.54	-0.5401719447502551	-0.03441047341814188	0.7941734016091573	1.175797806780707	-0.3549040555732046	-0.110877933274158	-0.328482606705581	0.5647336672252582	0.5647336672252825	-0.07633339972687621	-0.1732197421773241	0.02198780433381982	0.07343708602804029	1.157075922711174	0.5580957015803507	0.5152376281717377	-3.107794813727045	-0.01704685736923373	-0.5631040033401384	0.6655979251735579	-1.732210705226069	-1.732210705226273	-0.2701158359604886	0.0258462210197665	0.08788277431784212	0.01491463747215356	-0.1853612397825677	0.00445606065020523	0.01173639104944309	-0.06768505470492038	0.02928719174196028	0.01088835553803641	0.1517577080800072	-13.41918854514939	-4.94838083485851	3.442507920094102	-6.011758921951719	-411.8583116871777	-63.69620051976393	-20.28018642838592	0.5273542750251178	0.8227381340535248	-0.9647833818229251	-0.9717817247929231	0.3644176553278738	-0.09475402812966278	1.861232166591098	-0.191744453820526	-0.1917444538205245	-0.2008223957820247	0.3700201686563487	0.2508316424331534	0.449517177710563	1.647564573466367e-07	1.842590713730329e-06	-1.207864393619807e-06	2.899034828384856e-07	7.596025470354979e-07	-1.835760054955151e-07	4.907630761926026e-07
